<svg width="23" height="23" viewBox="0 0 23 23" fill="none" xmlns="http://www.w3.org/2000/svg">
<g clip-path="url(#clip0_812_1568)">
<path d="M9.17084 3.92779C9.80848 3.77854 10.4613 3.70393 11.1162 3.70547C17.6007 3.70547 21.3061 11.1163 21.3061 11.1163C20.7438 12.1683 20.0732 13.1587 19.3052 14.0714M13.0801 13.0802C12.8256 13.3532 12.5188 13.5722 12.1779 13.7241C11.837 13.876 11.469 13.9577 11.0959 13.9643C10.7227 13.9709 10.3521 13.9022 10.0061 13.7624C9.66001 13.6227 9.34567 13.4146 9.08177 13.1507C8.81787 12.8868 8.60983 12.5725 8.47006 12.2265C8.33029 11.8804 8.26165 11.5098 8.26823 11.1366C8.27482 10.7635 8.35649 10.3955 8.50838 10.0546C8.66028 9.71368 8.87927 9.40687 9.15232 9.15244M16.6188 16.6189C15.0352 17.8259 13.107 18.4946 11.1162 18.5272C4.6317 18.5272 0.92627 11.1163 0.92627 11.1163C2.07856 8.96893 3.67675 7.09279 5.61363 5.61376L16.6188 16.6189Z" stroke="#BDBDBD" stroke-width="2" stroke-linecap="round" stroke-linejoin="round"/>
<path d="M0.92627 0.926392L21.3061 21.3062" stroke="#BDBDBD" stroke-width="2" stroke-linecap="round" stroke-linejoin="round"/>
</g>
<defs>
<clipPath id="clip0_812_1568">
<rect width="22.2326" height="22.2326" fill="white"/>
</clipPath>
</defs>
</svg>
