<svg width="69" height="88" viewBox="0 0 69 88" fill="none" xmlns="http://www.w3.org/2000/svg">
<path d="M49.3353 22.2403H62.2335C63.2832 22.2403 64.2273 21.8134 64.6324 20.8396C65.0325 19.8712 64.809 18.8566 64.0695 18.1116L51.1658 5.28683C50.4232 4.54975 49.3054 4.32692 48.3395 4.7319C47.3686 5.13382 46.7402 6.08037 46.7402 7.12769V20.0503C46.7402 21.4868 47.9041 22.2403 49.3351 22.2403H49.3353Z" fill="white"/>
<path d="M65.9045 27.6804H46.5271C43.6389 27.6804 41.2995 25.749 41.2995 22.8633V3.48276C41.2995 2.04928 40.1356 0.479858 38.7046 0.479858H8.66006C4.20731 0.479858 0.5 4.49973 0.5 8.95015V79.8634C0.5 84.3186 4.20731 87.5201 8.66006 87.5201H60.4352C64.888 87.5201 68.5 84.3186 68.5 79.8659V30.6833C68.5 29.2498 67.3361 27.6804 65.9051 27.6804H65.9045ZM46.74 64.4006C46.74 66.6525 44.9118 68.4806 42.66 68.4806H39.94C37.6881 68.4806 35.8599 66.6525 35.8599 64.4006C35.8599 62.1487 37.6881 60.3206 39.94 60.3206H44.02V50.2158L30.4199 54.1051V67.1205C30.4199 69.3723 28.5917 71.2005 26.3399 71.2005H23.6198C21.368 71.2005 19.5398 69.3723 19.5398 67.1205C19.5398 64.8686 21.368 63.0404 23.6198 63.0404H27.6999V49.3912C27.6999 47.8083 28.7496 46.418 30.2676 45.9858L44.11 42.0309C44.7329 41.8542 45.4044 41.9762 45.9187 42.3684C46.4384 42.7576 46.7402 43.3696 46.7402 44.0168L46.74 64.4006Z" fill="white"/>
</svg>
