<svg width="63" height="67" viewBox="0 0 63 67" fill="none" xmlns="http://www.w3.org/2000/svg">
<g id="Logo" clip-path="url(#clip0_36_33)">
<path id="Logo_2" fill-rule="evenodd" clip-rule="evenodd" d="M53.8047 6.17017C52.1732 4.87749 50.2703 3.78078 48.0961 2.88003C43.6801 0.960028 38.0481 2.86102e-05 31.2001 2.86102e-05C25.3761 2.86102e-05 20.4801 0.608028 16.5121 1.82403C12.5441 3.04003 9.34406 4.67203 6.91206 6.72003C4.48006 8.70403 2.72006 10.944 1.63206 13.44C0.544059 15.936 5.8651e-05 18.464 5.8651e-05 21.024C5.8651e-05 24.48 0.672059 27.488 2.01606 30.048C3.36006 32.608 5.37606 34.688 8.06406 36.288C10.7521 37.824 14.0801 38.88 18.0481 39.456L20.2282 39.7467L34.429 25.5459L22.6561 23.808C21.5041 23.616 20.5761 23.392 19.8721 23.136C19.2321 22.88 18.7521 22.528 18.4321 22.08C18.1761 21.568 18.0481 20.992 18.0481 20.352C18.0481 19.392 18.3361 18.624 18.9121 18.048C19.5521 17.472 20.6721 17.056 22.2721 16.8C23.8721 16.48 26.2081 16.32 29.2801 16.32C33.3121 16.32 36.3201 16.512 38.3041 16.896C39.8629 17.1883 41.0139 17.6289 41.757 18.2179L53.8047 6.17017ZM49.4105 28.2421L35.8261 41.8264L38.2081 42.144C40.8321 42.464 42.5601 42.912 43.3921 43.488C44.2881 44.064 44.7361 44.928 44.7361 46.08C44.7361 47.04 44.4801 47.808 43.9681 48.384C43.5201 48.896 42.4321 49.28 40.7041 49.536C38.9761 49.728 36.2881 49.824 32.6401 49.824C30.862 49.824 29.2893 49.7929 27.9219 49.7307L14.3429 63.3096C14.7989 63.4952 15.2659 63.672 15.7441 63.84C20.4801 65.44 26.1121 66.24 32.6401 66.24C39.8721 66.24 45.6961 65.28 50.1121 63.36C54.5281 61.376 57.7281 58.816 59.7121 55.68C61.7601 52.48 62.7841 49.056 62.7841 45.408C62.7841 42.656 62.2081 40 61.0561 37.44C59.9041 34.88 57.8881 32.672 55.0081 30.816C53.4769 29.7952 51.611 28.9373 49.4105 28.2421ZM4.35252 55.6224L17.6389 42.336H0.960059V42.912C0.960059 48.0252 2.09088 52.262 4.35252 55.6224ZM53.7486 23.904L60.6876 16.965C61.1892 18.9355 61.4401 21.0565 61.4401 23.328V23.904H53.7486Z" fill="white"/>
</g>
<defs>
<clipPath id="clip0_36_33">
<rect width="62.7842" height="66.24" fill="white"/>
</clipPath>
</defs>
</svg>
